<svg xmlns="http://www.w3.org/2000/svg" viewBox="0 0 512 400"><defs><clipPath id="corps"><circle cx="152" cy="232" r="82"/><circle cx="218" cy="160" r="92"/><circle cx="316" cy="178" r="82"/><circle cx="360" cy="232" r="82"/><rect x="122" y="196" width="268" height="118" rx="59"/></clipPath></defs><ellipse cx="256" cy="372" rx="132" ry="16" fill="#D8E5F2" opacity="1"/><g transform="translate(256 240) scale(1.055) translate(-256 -240)"><circle cx="152" cy="232" r="82" fill="#D8E5F2"/><circle cx="218" cy="160" r="92" fill="#D8E5F2"/><circle cx="316" cy="178" r="82" fill="#D8E5F2"/><circle cx="360" cy="232" r="82" fill="#D8E5F2"/><rect x="122" y="196" width="268" height="118" rx="59" fill="#D8E5F2"/></g><circle cx="152" cy="232" r="82" fill="#EAF1F9"/><circle cx="218" cy="160" r="92" fill="#EAF1F9"/><circle cx="316" cy="178" r="82" fill="#EAF1F9"/><circle cx="360" cy="232" r="82" fill="#EAF1F9"/><rect x="122" y="196" width="268" height="118" rx="59" fill="#EAF1F9"/><ellipse cx="256" cy="334" rx="212" ry="66" fill="#D8E5F2" opacity="0.5" clip-path="url(#corps)"/><ellipse cx="164" cy="266" rx="21" ry="12" fill="#F4B8BE"/><ellipse cx="348" cy="266" rx="21" ry="12" fill="#F4B8BE"/><g class="yeux"><circle cx="204" cy="232" r="12" fill="#33414F"/><circle cx="200" cy="228" r="4.1" fill="#FFFFFF"/><circle cx="208" cy="236" r="1.9" fill="#FFFFFF" opacity="0.85"/><path d="M 294 230 Q 308 241 322 230" stroke="#33414F" stroke-width="9" stroke-linecap="round" stroke-linejoin="round" fill="none"/></g><path d="M 232 270 Q 258 288 284 264" stroke="#33414F" stroke-width="9" stroke-linecap="round" stroke-linejoin="round" fill="none"/></svg>