<svg xmlns="http://www.w3.org/2000/svg" viewBox="0 0 512 400"><defs><clipPath id="corps"><circle cx="152" cy="232" r="82"/><circle cx="218" cy="160" r="92"/><circle cx="316" cy="178" r="82"/><circle cx="360" cy="232" r="82"/><rect x="122" y="196" width="268" height="118" rx="59"/></clipPath></defs><ellipse cx="256" cy="372" rx="132" ry="16" fill="#D8E5F2" opacity="0.55"/><g transform="translate(256 240) scale(1.055) translate(-256 -240)"><circle cx="152" cy="232" r="82" fill="#D8E5F2"/><circle cx="218" cy="160" r="92" fill="#D8E5F2"/><circle cx="316" cy="178" r="82" fill="#D8E5F2"/><circle cx="360" cy="232" r="82" fill="#D8E5F2"/><rect x="122" y="196" width="268" height="118" rx="59" fill="#D8E5F2"/></g><circle cx="152" cy="232" r="82" fill="#EAF1F9"/><circle cx="218" cy="160" r="92" fill="#EAF1F9"/><circle cx="316" cy="178" r="82" fill="#EAF1F9"/><circle cx="360" cy="232" r="82" fill="#EAF1F9"/><rect x="122" y="196" width="268" height="118" rx="59" fill="#EAF1F9"/><ellipse cx="256" cy="334" rx="212" ry="66" fill="#D8E5F2" opacity="0.5" clip-path="url(#corps)"/><ellipse cx="164" cy="266" rx="21" ry="12" fill="#F4B8BE"/><ellipse cx="348" cy="266" rx="21" ry="12" fill="#F4B8BE"/><path d="M 290 200 Q 308 191 326 200" stroke="#33414F" stroke-width="7" stroke-linecap="round" stroke-linejoin="round" fill="none"/><circle cx="204" cy="232" r="13" fill="#FFFFFF" stroke="#33414F" stroke-width="5"/><circle cx="200" cy="235" r="5" fill="#33414F"/><circle cx="308" cy="232" r="13" fill="#FFFFFF" stroke="#33414F" stroke-width="5"/><circle cx="312" cy="229" r="5" fill="#33414F"/><path d="M 240 276 Q 248 270 256 276 Q 264 282 272 276" stroke="#33414F" stroke-width="8" stroke-linecap="round" stroke-linejoin="round" fill="none"/><path d="M 374 98 Q 374 70 396 70 Q 418 70 418 92 Q 418 110 396 114 L 396 126" stroke="#EAF1F9" stroke-width="10" stroke-linecap="round" stroke-linejoin="round" fill="none"/><circle cx="396" cy="146" r="6.5" fill="#EAF1F9"/><path d="M 96 85 Q 98.42 93.58 107 96 Q 98.42 98.42 96 107 Q 93.58 98.42 85 96 Q 93.58 93.58 96 85 Z" fill="#EAF1F9" opacity="0.95"/><path d="M 434 64 Q 435.76 70.24 442 72 Q 435.76 73.76 434 80 Q 432.24 73.76 426 72 Q 432.24 70.24 434 64 Z" fill="#EAF1F9" opacity="0.95"/><path d="M 458 150 Q 459.32 154.68 464 156 Q 459.32 157.32 458 162 Q 456.68 157.32 452 156 Q 456.68 154.68 458 150 Z" fill="#EAF1F9" opacity="0.95"/></svg>